<?xml version="1.0" encoding="UTF-8"?>
<svg width="752pt" height="752pt" version="1.1" viewBox="0 0 752 752" xmlns="http://www.w3.org/2000/svg">
 <g>
  <path d="m509.2 368.6c-2.625 0.011719-5.2461 0.20703-7.8438 0.59375 0.29688-2.6562 0.44531-5.3242 0.44531-7.9922-0.011719-23.215-9.9297-45.32-27.266-60.758-17.34-15.438-40.441-22.738-63.5-20.066-23.062 2.6719-43.883 15.062-57.23 34.059-6.9297-3.3164-14.516-5.0391-22.199-5.0352-10.707 0.074218-21.137 3.4336-29.871 9.6289-8.7344 6.1914-15.355 14.922-18.965 25.004-7.9688-3.332-16.523-5.043-25.16-5.0312-23.793 0-45.777 12.691-57.676 33.297-11.895 20.605-11.895 45.992 0 66.598 11.898 20.605 33.883 33.301 57.676 33.301h251.59c18.508 0 35.605-9.875 44.859-25.902 9.2539-16.023 9.2539-35.77 0-51.797-9.2539-16.027-26.352-25.898-44.859-25.898zm0 88.797h-251.59c-16.211 0.10547-31.539-7.3867-41.414-20.246-9.875-12.855-13.16-29.594-8.8789-45.23s15.637-28.367 30.688-34.398c15.047-6.0352 32.051-4.6719 45.949 3.6797 2.1172 1.2578 4.7227 1.3828 6.9492 0.32812 2.2266-1.0547 3.7812-3.1484 4.1484-5.582 1.2656-8.8008 5.6523-16.852 12.367-22.684 6.7109-5.8281 15.297-9.0469 24.188-9.0625 7.3359-0.03125 14.512 2.1602 20.574 6.2891 1.7188 1.1484 3.8359 1.5234 5.8438 1.0352 1.9922-0.45312 3.707-1.7109 4.7383-3.4766 10.895-18.523 30.062-30.648 51.469-32.562 21.402-1.918 42.418 6.6172 56.43 22.914 14.012 16.293 19.297 38.352 14.195 59.227-0.70312 2.7305 0.20313 5.6211 2.3398 7.4609 2.1367 1.8359 5.1289 2.3008 7.7227 1.1953 4.5156-1.918 9.375-2.8984 14.281-2.8828 13.219 0 25.434 7.0508 32.043 18.496 6.6094 11.449 6.6094 25.555 0 37-6.6094 11.449-18.824 18.5-32.043 18.5z"/>
  <path d="m381.25 341.15c-1.3867-1.4023-3.2812-2.1875-5.2539-2.1875s-3.8633 0.78516-5.2539 2.1875l-44.398 44.398c-2.0977 2.1289-2.7109 5.3086-1.5508 8.0664 1.1328 2.7617 3.8203 4.5742 6.8047 4.5859h22.199v37c0 1.9609 0.78125 3.8438 2.168 5.2305 1.3867 1.3906 3.2695 2.168 5.2344 2.168h29.598c1.9609 0 3.8438-0.77734 5.2305-2.168 1.3906-1.3867 2.168-3.2695 2.168-5.2305v-37h22.199c2.9883-0.011719 5.6719-1.8242 6.8086-4.5859 1.1602-2.7578 0.54688-5.9375-1.5547-8.0664zm9.5469 42.254c-4.0859 0-7.3984 3.3125-7.3984 7.3984v37h-14.801v-37c0-1.9609-0.78125-3.8438-2.168-5.2305-1.3867-1.3906-3.2695-2.168-5.2305-2.168h-11.766l26.562-26.566 26.566 26.566z"/>
 </g>
</svg>
