<?xml version="1.0" encoding="UTF-8"?>
<svg width="752pt" height="752pt" version="1.1" viewBox="0 0 752 752" xmlns="http://www.w3.org/2000/svg">
 <defs>
  <clipPath id="a">
   <path d="m187 139.21h378v473.58h-378z"/>
  </clipPath>
 </defs>
 <g clip-path="url(#a)">
  <path d="m244.48 611.95 58.762 0.078126h0.019531l135.82-0.097657c4.5195 0 8.957-1.8164 12.176-4.9727 41.141-40.059 101.54-98.703 106.61-103.16 0.29688-0.23828 1.6562-1.4023 1.9141-1.6562 3.2773-3.2344 5.1719-7.7539 5.1719-12.371v-0.67188c0-0.039062 0.019531-0.058594 0.019531-0.097656 0-0.039063-0.019531-0.058594-0.019531-0.097656l0.019531-97.043-0.019531-195.69c0-37.215-18.824-56.121-55.941-56.16l-85.68-0.058593c-60.539 0-121.1 0.078125-181.64 0.21875-35.699 0.10938-54.582 19.211-54.641 55.301l-0.039062 233.41 0.039062 124.77c0.097656 40.195 17.816 58.172 57.422 58.293zm202.52-23.406v-42.523c0.019531-20.027 1.5586-33.941 9.1172-41.418 7.6953-7.6367 19.277-7.9336 45.07-7.7344l41.023 0.019531c-16.242 15.449-61.527 59.316-95.211 91.656zm-244.13-393.07c0.019531-27.625 11.66-39.445 38.875-39.504 60.539-0.13672 121.06-0.21875 181.6-0.21875l85.68 0.058594c28.512 0.039062 40.137 11.742 40.137 40.371l0.019531 195.69-0.019531 89.23-48.09-0.039062c-26.164-0.15625-43.41-0.25781-56.078 12.312-11.426 11.328-13.734 28.512-13.793 52.605v50.141l-127.93 0.10156-58.742-0.078125c-30.703-0.078125-41.598-11.207-41.656-42.523l-0.039063-99.746z"/>
 </g>
 <path d="m306.8 444 40.078-0.039062 21.23 0.039062h0.019531l33.703-0.019531c17.027-0.058594 27.605-10.598 27.645-27.527v-9.4922c11.168 9.7891 22.277 19.277 26.086 22.199 2.0312 1.5195 4.4414 2.3281 6.9453 2.3281 1.2227 0 4.0039-0.65234 5.0898-1.1836 3.9453-1.9531 6.4141-5.8984 6.4141-10.301v-87.984c0-4.3789-2.4453-8.3281-6.3555-10.281-1.1055-0.55078-3.9062-1.2227-5.1484-1.2227-2.4648 0-4.8945 0.80859-6.8867 2.2891-3.4531 2.5859-15.449 12.727-26.145 22.023v-8.4453c-0.039062-18.547-9.9844-28.375-28.77-28.375l-53.832 0.019532-27.902-0.023438-13.316 0.019532c-17.051 0.039062-27.648 10.598-27.648 27.508-0.039062 26.699-0.039062 53.375 0 80.055 0.042969 18.566 9.9883 28.375 28.793 28.414zm122.71-78.16c8.3281-7.457 20.777-18.152 28.691-24.785v69.871c-7.5977-6.4336-19.219-16.535-28.711-25.039zm-135.72-30.289c0-8.3086 3.4336-11.723 11.898-11.742l13.301-0.019532 28.395 0.058594 53.316-0.058594c10.062 0 12.965 2.8398 12.965 12.629 0.039063 26.66 0.039063 53.336 0 80.016 0 8.3281-3.4531 11.723-11.879 11.762l-33.664 0.019532-21.727-0.078125-39.602 0.058593c-10.082-0.019531-12.984-2.8398-12.984-12.629-0.039062-26.66-0.039062-53.34-0.019531-80.016z"/>
</svg>
